<svg width="688" height="412" viewBox="0 0 688 412" fill="none" xmlns="http://www.w3.org/2000/svg">
<path d="M623.699 343.309C661.171 554.903 504.516 674.721 421.505 708.181L-91.5512 721.616C-95.8509 584.155 -104.141 305.024 -102.901 288.191C-101.351 267.15 -193.693 77.9932 -24.3941 45.2737C144.905 12.5543 208.528 51.6033 252.204 195.319C295.88 339.035 576.86 78.816 623.699 343.309Z" fill="#C1D7EB"/>
<path d="M673.699 323.309C711.171 534.903 554.516 654.721 471.505 688.181L-41.5512 701.616C-45.8509 564.155 -54.1406 285.024 -52.9008 268.191C-51.3511 247.15 -143.693 57.9932 25.6059 25.2737C194.905 -7.44571 258.528 31.6033 302.204 175.319C345.88 319.035 626.86 58.816 673.699 323.309Z" fill="#6692E7" fill-opacity="0.2"/>
</svg>
